<?xml version="1.0" encoding="utf-8"?>
<!-- Generator: Adobe Illustrator 16.0.4, SVG Export Plug-In . SVG Version: 6.00 Build 0)  -->
<!DOCTYPE svg PUBLIC "-//W3C//DTD SVG 1.1//EN" "http://www.w3.org/Graphics/SVG/1.1/DTD/svg11.dtd">
<svg version="1.1" xmlns="http://www.w3.org/2000/svg" xmlns:xlink="http://www.w3.org/1999/xlink" x="0px" y="0px" width="29px"
	 height="29px" viewBox="0 0 29 29" enable-background="new 0 0 29 29" xml:space="preserve">
<g id="Ellipse_2_1_" opacity="0.702" enable-background="new    ">
	<g id="Ellipse_2" opacity="0.7">
		<g>
			<path fill="#FFFFFF" d="M14.5,0C6.492,0,0,6.492,0,14.5S6.492,29,14.5,29C22.508,29,29,22.508,29,14.5S22.508,0,14.5,0z M14.5,27
				C7.597,27,2,21.403,2,14.5S7.597,2,14.5,2S27,7.597,27,14.5S21.403,27,14.5,27z"/>
		</g>
	</g>
</g>
<g id="X_1_" opacity="0.702" enable-background="new    ">
	<g id="X">
		<g>
			<polygon fill="#FFFFFF" points="19.691,18.132 16.42,14.861 19.646,11.635 18.102,10.09 14.875,13.316 11.604,10.044 
				10.044,11.604 13.315,14.875 10.09,18.101 11.635,19.646 14.86,16.42 18.132,19.691 			"/>
		</g>
	</g>
</g>
</svg>
